<?xml version="1.0" standalone="no"?>
<!DOCTYPE svg PUBLIC "-//W3C//DTD SVG 20010904//EN"
 "http://www.w3.org/TR/2001/REC-SVG-20010904/DTD/svg10.dtd">
<svg version="1.0" xmlns="http://www.w3.org/2000/svg"
 width="3008.000000pt" height="1570.000000pt" viewBox="0 0 3008.000000 1570.000000"
 preserveAspectRatio="xMidYMid meet">

<g transform="translate(0.000000,1570.000000) scale(0.100000,-0.100000)"
fill="#000000" stroke="none">
<path d="M14615 15569 c-1555 -80 -3069 -638 -4302 -1586 -320 -246 -532 -434
-818 -724 -414 -421 -751 -848 -1062 -1349 -889 -1429 -1287 -3126 -1128
-4810 154 -1624 810 -3144 1892 -4382 138 -158 453 -478 614 -624 1209 -1095
2724 -1782 4329 -1964 324 -36 480 -44 880 -44 400 0 556 8 880 44 1605 182
3120 869 4329 1964 161 146 476 466 614 624 278 318 541 673 764 1032 889
1429 1287 3126 1128 4810 -154 1624 -810 3144 -1892 4382 -138 158 -453 478
-614 624 -1539 1393 -3545 2109 -5614 2003z m4129 -2414 c98 -30 176 -80 348
-222 133 -109 188 -137 373 -186 111 -30 159 -54 207 -104 53 -55 58 -86 19
-122 -55 -51 -121 -61 -446 -65 -319 -3 -394 -13 -495 -64 -47 -23 -59 -36
-85 -87 -41 -79 -40 -162 0 -232 44 -75 174 -202 375 -366 315 -256 423 -366
516 -523 200 -339 235 -760 98 -1191 -36 -112 -142 -328 -219 -443 -74 -112
-223 -287 -325 -384 -166 -156 -461 -374 -658 -486 -106 -60 -164 -119 -180
-182 -6 -24 -14 -110 -17 -193 -16 -403 -120 -737 -299 -961 -84 -104 -159
-166 -271 -219 -217 -104 -725 -245 -1286 -355 -135 -27 -270 -59 -300 -70
-30 -12 -101 -51 -158 -88 -115 -73 -210 -171 -390 -402 -194 -250 -488 -666
-478 -676 1 -2 317 94 702 212 922 283 1117 340 1195 348 130 13 257 -29 344
-112 66 -64 496 -708 527 -790 15 -40 13 -120 -5 -146 -8 -13 -35 -32 -60 -41
-41 -16 -48 -16 -102 0 -74 22 -100 35 -155 81 -70 59 -119 76 -244 84 -212
15 -287 71 -340 253 -22 75 -46 92 -123 84 -51 -5 -367 -100 -1317 -398 -286
-90 -339 -110 -500 -189 -99 -49 -204 -94 -234 -101 -141 -30 -269 32 -339
164 -25 48 -27 60 -27 172 0 69 6 143 14 175 40 158 239 528 539 1005 55 88
99 161 97 163 -10 10 -523 -211 -579 -250 -62 -43 -554 -427 -688 -537 -123
-100 -139 -117 -148 -154 -31 -124 -100 -231 -197 -306 -22 -17 -86 -54 -141
-81 -83 -42 -111 -62 -173 -127 -42 -44 -222 -281 -409 -538 -775 -1066 -1164
-1588 -1274 -1710 -222 -245 -249 -282 -334 -451 -74 -148 -101 -174 -178
-174 -93 0 -125 54 -132 226 -7 177 21 295 118 496 64 134 69 172 40 317 -30
153 -26 234 16 292 41 57 112 95 209 114 275 53 299 62 382 147 28 29 115 145
194 258 78 113 317 455 530 761 214 306 397 577 409 603 11 26 29 84 41 129
55 217 180 366 379 454 52 23 212 149 475 375 333 287 537 488 551 545 15 59
-69 108 -286 168 -261 71 -526 155 -655 205 -153 60 -369 170 -446 227 -123
91 -201 113 -405 113 -295 0 -516 -68 -779 -241 -135 -89 -240 -129 -338 -129
-63 0 -74 4 -185 61 -429 225 -667 413 -723 574 -19 53 -16 239 4 331 28 124
103 294 180 409 152 225 336 348 672 450 262 79 410 99 1165 155 479 36 710
71 955 145 179 55 253 87 521 231 520 278 855 414 1279 520 338 84 569 114
930 121 299 6 381 -2 597 -57 138 -35 460 -141 743 -245 659 -241 788 -273
1063 -262 279 11 415 58 587 205 83 71 121 130 175 276 107 283 117 550 28
719 -68 126 -211 277 -488 515 -113 97 -253 224 -312 283 -216 218 -337 461
-370 741 -20 166 16 368 93 520 61 122 179 216 309 245 67 16 225 9 294 -12z"/>
</g>
</svg>
